<svg width="42" height="42" viewBox="0 0 42 42" fill="none" xmlns="http://www.w3.org/2000/svg">
<path d="M19.6875 27.6299V12.9299L15.3733 17.2441L13.5288 15.3462L21 7.875L28.4712 15.3462L26.6267 17.2441L22.3125 12.9299V27.6299H19.6875ZM11.0386 34.125C10.1545 34.125 9.40625 33.8187 8.79375 33.2062C8.18125 32.5937 7.875 31.8455 7.875 30.9614V26.2163H10.5V30.9614C10.5 31.0962 10.5561 31.2196 10.6684 31.3316C10.7804 31.4439 10.9038 31.5 11.0386 31.5H30.9614C31.0962 31.5 31.2196 31.4439 31.3316 31.3316C31.4439 31.2196 31.5 31.0962 31.5 30.9614V26.2163H34.125V30.9614C34.125 31.8455 33.8187 32.5937 33.2062 33.2062C32.5937 33.8187 31.8455 34.125 30.9614 34.125H11.0386Z" fill="#f2f2f2"/>
</svg>
