<svg width="32" height="32" viewBox="0 0 32 32" fill="none" xmlns="http://www.w3.org/2000/svg">
<path d="M10.2092 14.2745C10.0668 14.2745 9.92758 14.3168 9.80917 14.3959C9.69076 14.475 9.59848 14.5875 9.54398 14.719C9.48949 14.8506 9.47523 14.9954 9.50301 15.135C9.53079 15.2747 9.59937 15.403 9.70006 15.5037C9.80076 15.6044 9.92906 15.673 10.0687 15.7007C10.2084 15.7285 10.3532 15.7143 10.4847 15.6598C10.6163 15.6053 10.7288 15.513 10.8079 15.3946C10.887 15.2762 10.9292 15.137 10.9292 14.9946C10.9292 14.8036 10.8534 14.6205 10.7183 14.4854C10.5833 14.3504 10.4002 14.2745 10.2092 14.2745Z" fill="white"/>
<path d="M17.322 14.2007C17.1687 14.2007 17.0189 14.2461 16.8914 14.3313C16.7639 14.4165 16.6646 14.5375 16.6059 14.6792C16.5473 14.8208 16.5319 14.9766 16.5618 15.127C16.5917 15.2773 16.6656 15.4154 16.774 15.5238C16.8824 15.6322 17.0205 15.7061 17.1708 15.736C17.3212 15.7659 17.477 15.7505 17.6186 15.6919C17.7603 15.6332 17.8813 15.5339 17.9665 15.4064C18.0517 15.2789 18.0971 15.1291 18.0971 14.9758C18.0971 14.7702 18.0155 14.5731 17.8701 14.4277C17.7247 14.2823 17.5276 14.2007 17.322 14.2007Z" fill="white"/>
<path d="M23.7592 7.11733L8.44539 7.11733C7.70315 7.11733 6.9913 7.41209 6.46633 7.93681C5.94137 8.46152 5.64626 9.17323 5.64591 9.91547L5.64591 19.0044C5.64626 19.7464 5.94118 20.4579 6.46585 20.9826C6.99053 21.5072 7.70204 21.8021 8.44404 21.8025L13.8536 21.8025L15.6926 26.1374C15.6926 26.1374 15.8189 26.5122 16.1265 26.5122C16.4341 26.5122 16.559 26.1374 16.559 26.1374L18.3994 21.8025L23.7592 21.8025C24.5011 21.8021 25.2125 21.5072 25.7369 20.9825C26.2614 20.4578 26.556 19.7462 26.556 19.0044L26.556 9.91547C26.556 9.17359 26.2614 8.46208 25.7369 7.93736C25.2125 7.41265 24.5011 7.11769 23.7592 7.11733ZM12.2161 15.1531C12.2101 15.6076 12.0256 16.0416 11.7024 16.3613C11.3791 16.681 10.9432 16.8608 10.4886 16.8618C10.2945 16.8623 10.1024 16.8235 9.92367 16.7477C9.74499 16.672 9.58348 16.5609 9.44885 16.4212L9.44885 16.7207L8.19821 16.7207L8.19821 11.561C8.27613 11.5731 9.44885 11.561 9.44885 11.561L9.44885 13.529C9.74303 13.0279 10.5947 13.036 10.5947 13.036C10.8429 13.0615 11.0832 13.1375 11.301 13.2592C11.5187 13.3808 11.7094 13.5457 11.8612 13.7437C12.013 13.9417 12.1227 14.1685 12.1838 14.4104C12.2448 14.6523 12.2558 14.9041 12.2161 15.1504M14.4178 13.1972L14.4178 16.7301L13.194 16.7301L13.194 13.2375C13.194 12.762 12.603 12.6303 12.603 12.6303L12.603 11.3904C12.8452 11.3725 13.0884 11.4069 13.3162 11.4912C13.544 11.5756 13.7509 11.7079 13.9231 11.8793C14.0952 12.0507 14.2284 12.257 14.3138 12.4844C14.3992 12.7118 14.4346 12.9549 14.4178 13.1972ZM17.322 16.8645C16.7993 16.8852 16.2896 16.698 15.9047 16.3437C15.5197 15.9895 15.2908 15.4971 15.2681 14.9744C15.3118 14.4599 15.547 13.9806 15.9273 13.6313C16.3075 13.2819 16.805 13.0881 17.3214 13.0881C17.8377 13.0881 18.3352 13.2819 18.7155 13.6313C19.0957 13.9806 19.3309 14.4599 19.3746 14.9744C19.3523 15.497 19.1237 15.9893 18.7389 16.3436C18.3542 16.6979 17.8447 16.8852 17.322 16.8645ZM24.0306 16.8645C24.0373 17.1029 23.9952 17.3402 23.9067 17.5617C23.8182 17.7832 23.6853 17.9842 23.5161 18.1524C23.3469 18.3205 23.1451 18.4522 22.9231 18.5394C22.7011 18.6266 22.4635 18.6673 22.2252 18.6591L21.669 18.6591L21.669 17.4972L22.0049 17.4972C22.0049 17.4972 22.7705 17.567 22.7611 16.3862C22.7611 16.3862 22.612 16.8645 21.5374 16.8645C21.1277 16.8423 20.7419 16.6647 20.4586 16.3679C20.1753 16.0711 20.0159 15.6775 20.0127 15.2673L20.0127 14.7031C20.0334 14.2605 20.2216 13.8423 20.5391 13.5332C20.8566 13.2242 21.2798 13.0474 21.7228 13.0387C21.9257 13.0248 22.1289 13.0609 22.3146 13.1438C22.5003 13.2267 22.6629 13.3539 22.788 13.5142L22.788 13.1354L24.0306 13.1354L24.0306 16.8645Z" fill="white"/>
<path d="M22.0842 14.2168C21.9343 14.2168 21.7878 14.2613 21.6632 14.3445C21.5386 14.4278 21.4415 14.5461 21.3842 14.6845C21.3268 14.823 21.3118 14.9753 21.3411 15.1223C21.3703 15.2692 21.4425 15.4042 21.5484 15.5102C21.6544 15.6161 21.7894 15.6883 21.9363 15.7175C22.0833 15.7468 22.2356 15.7318 22.3741 15.6744C22.5125 15.6171 22.6309 15.52 22.7141 15.3954C22.7974 15.2708 22.8418 15.1243 22.8418 14.9745C22.8418 14.7735 22.762 14.5808 22.6199 14.4387C22.4778 14.2966 22.2851 14.2168 22.0842 14.2168Z" fill="white"/>
</svg>
