<svg width="32" height="32" viewBox="0 0 32 32" fill="none" xmlns="http://www.w3.org/2000/svg">
<path d="M26.1605 15.9901C26.1605 10.3762 21.6096 5.82527 15.9957 5.82527C10.3818 5.82527 5.83084 10.3762 5.83084 15.9901C5.83084 21.0636 9.54795 25.2689 14.4074 26.0315L14.4074 18.9284L11.8265 18.9284L11.8265 15.9901L14.4074 15.9901L14.4074 13.7507C14.4074 11.2031 15.925 9.79591 18.2468 9.79591C19.3586 9.79591 20.5222 9.99445 20.5222 9.99445L20.5222 12.4959L19.2405 12.4959C17.9778 12.4959 17.5839 13.2796 17.5839 14.0842L17.5839 15.9901L20.4031 15.9901L19.9524 18.9284L17.5839 18.9284L17.5839 26.0315C22.4434 25.2689 26.1605 21.0636 26.1605 15.9901Z" fill="white"/>
</svg>
