<svg width="32" height="32" viewBox="0 0 32 32" fill="none" xmlns="http://www.w3.org/2000/svg">
<path d="M13.2714 14.9527L14.5909 14.9527L13.959 12.9705L13.2714 14.9527Z" fill="#3B1B1C"/>
<path d="M16.2168 5.64725C10.1192 5.64725 5.17695 9.55445 5.17695 14.375C5.26116 15.9806 5.79749 17.5296 6.72409 18.8435C7.65069 20.1574 8.92981 21.1826 10.4139 21.8009C10.1837 22.663 9.57824 24.9238 9.45655 25.4076C9.30994 26.0072 9.67647 25.994 9.91838 25.8386C10.109 25.7125 12.9444 23.7861 14.1701 22.9518C14.8498 23.051 15.5358 23.1 16.2227 23.0984C22.3203 23.0984 27.264 19.1912 27.264 14.3706C27.264 9.55005 22.3188 5.64725 16.2168 5.64725ZM10.8376 16.6241C10.8376 17.1548 9.65741 17.1475 9.65594 16.6167C9.66327 15.8837 9.65594 12.7682 9.65594 12.7682L8.5197 12.7682C8.3837 12.7559 8.25719 12.6933 8.16506 12.5925C8.07293 12.4917 8.02183 12.3601 8.02183 12.2235C8.02183 12.087 8.07293 11.9553 8.16506 11.8546C8.25719 11.7538 8.3837 11.6911 8.5197 11.6789C8.5197 11.6789 11.1792 11.7008 11.9753 11.7008C12.1227 11.7008 12.264 11.7594 12.3683 11.8636C12.4725 11.9678 12.531 12.1091 12.531 12.2565C12.531 12.4039 12.4725 12.5452 12.3683 12.6494C12.264 12.7536 12.1227 12.8122 11.9753 12.8122L10.845 12.8122L10.8376 16.6241ZM15.1817 16.759C14.9046 16.0259 14.9765 15.9966 14.9765 15.9966L12.8975 15.9966L12.6703 16.7927C12.4269 17.3498 11.3816 16.8953 11.6249 16.3367C11.9592 15.5655 12.9694 12.6582 13.2494 12.0425C13.3106 11.9293 13.4036 11.8367 13.517 11.7759C13.6304 11.7152 13.7591 11.6891 13.8872 11.7008C14.0306 11.6906 14.1744 11.7166 14.3053 11.7762C14.4361 11.8359 14.55 11.9274 14.6363 12.0425C14.8372 12.472 15.9412 15.5054 16.2608 16.3484C16.4851 16.9349 15.4046 17.3483 15.1817 16.759ZM19.3983 17.0243L17.1155 17.0243C16.5731 17.0243 16.664 16.3924 16.664 16.3924C16.664 16.3924 16.664 13.2065 16.664 12.2184C16.6877 12.0724 16.7626 11.9395 16.8753 11.8437C16.988 11.7478 17.1311 11.6952 17.279 11.6952C17.427 11.6952 17.5701 11.7478 17.6827 11.8437C17.7954 11.9395 17.8703 12.0724 17.8941 12.2184C17.8941 12.9339 17.8941 15.8837 17.8941 15.8837C17.8941 15.8837 18.8676 15.8837 19.4027 15.8837C19.9378 15.8837 19.9393 17.0199 19.4027 17.0199M23.068 16.932L21.5696 14.8926L21.228 15.1667C21.228 15.1667 21.228 16.1769 21.228 16.7091C21.228 17.1665 20.0551 17.168 20.0551 16.7091C20.0551 16.4159 20.08 12.4999 20.0683 12.0659C20.0683 11.8284 20.3615 11.7038 20.668 11.7038C20.9744 11.7038 21.2221 11.8123 21.228 12.0351C21.2441 12.6216 21.228 13.686 21.228 13.686C21.228 13.686 22.9258 11.9926 23.1662 11.7551C23.4067 11.5176 24.1837 12.2829 23.9359 12.5292C23.5108 12.9529 22.4302 14.1214 22.4302 14.1214L24.021 16.2165C24.3244 16.6153 23.3715 17.3366 23.068 16.9378" fill="#3B1B1C"/>
</svg>
