<svg width="20" height="20" viewBox="0 0 20 20" fill="none" xmlns="http://www.w3.org/2000/svg">
<path d="M11.3118 14.3927L7.05346 12.0702C6.6447 12.4759 6.12497 12.7516 5.55978 12.8624C4.9946 12.9732 4.40926 12.9141 3.87756 12.6928C3.34587 12.4714 2.89162 12.0975 2.57208 11.6183C2.25255 11.1392 2.08203 10.5761 2.08203 10.0002C2.08203 9.42423 2.25255 8.86118 2.57208 8.382C2.89162 7.90282 3.34587 7.52898 3.87756 7.30759C4.40926 7.0862 4.9946 7.02719 5.55978 7.13798C6.12497 7.24878 6.6447 7.52443 7.05346 7.93017L11.3118 5.60767C11.1657 4.92245 11.2712 4.20756 11.609 3.59372C11.9467 2.97988 12.4941 2.50812 13.151 2.2647C13.808 2.02129 14.5306 2.02249 15.1868 2.26808C15.843 2.51367 16.3888 2.98725 16.7245 3.6022C17.0602 4.21716 17.1633 4.9324 17.0149 5.61713C16.8666 6.30187 16.4768 6.91033 15.9167 7.33126C15.3566 7.75218 14.6638 7.95744 13.9648 7.9095C13.2658 7.86156 12.6075 7.56363 12.1101 7.07017L7.85179 9.39267C7.93697 9.79291 7.93697 10.2066 7.85179 10.6068L12.1101 12.9302C12.6075 12.4367 13.2658 12.1388 13.9648 12.0908C14.6638 12.0429 15.3566 12.2482 15.9167 12.6691C16.4768 13.09 16.8666 13.6985 17.0149 14.3832C17.1633 15.0679 17.0602 15.7832 16.7245 16.3981C16.3888 17.0131 15.843 17.4867 15.1868 17.7323C14.5306 17.9779 13.808 17.9791 13.151 17.7356C12.4941 17.4922 11.9467 17.0205 11.609 16.4066C11.2712 15.7928 11.1657 15.0779 11.3118 14.3927Z" fill="#999999"/>
</svg>
