<svg width="32" height="32" viewBox="0 0 32 32" fill="none" xmlns="http://www.w3.org/2000/svg">
<g opacity="0.3">
<path d="M16.0193 25.454C14.4752 25.4524 12.9948 24.8382 11.9029 23.7464C10.8111 22.6545 10.1969 21.1741 10.1953 19.63V11.2226H11.4261V19.63C11.4261 20.8482 11.91 22.0165 12.7714 22.8779C13.6328 23.7393 14.8011 24.2232 16.0193 24.2232C17.2375 24.2232 18.4058 23.7393 19.2672 22.8779C20.1286 22.0165 20.6125 20.8482 20.6125 19.63V10.782C20.6206 10.3836 20.5491 9.98752 20.4022 9.61707C20.2553 9.24661 20.036 8.9092 19.7571 8.62457C19.4782 8.33994 19.1453 8.11382 18.7779 7.95945C18.4105 7.80508 18.016 7.72557 17.6175 7.72557C17.219 7.72557 16.8245 7.80508 16.4571 7.95945C16.0897 8.11382 15.7568 8.33994 15.4778 8.62457C15.1989 8.9092 14.9796 9.24661 14.8327 9.61707C14.6858 9.98752 14.6143 10.3836 14.6224 10.782V18.734C14.6224 19.1005 14.768 19.4521 15.0272 19.7113C15.2864 19.9705 15.638 20.1161 16.0045 20.1161C16.3711 20.1161 16.7227 19.9705 16.9819 19.7113C17.2411 19.4521 17.3867 19.1005 17.3867 18.734V11.2263H18.6175V18.734C18.6175 19.0771 18.5499 19.4169 18.4186 19.7339C18.2873 20.0509 18.0948 20.339 17.8522 20.5816C17.6095 20.8242 17.3215 21.0167 17.0045 21.148C16.6875 21.2793 16.3477 21.3469 16.0045 21.3469C15.6614 21.3469 15.3216 21.2793 15.0046 21.148C14.6876 21.0167 14.3996 20.8242 14.1569 20.5816C13.9143 20.339 13.7218 20.0509 13.5905 19.7339C13.4592 19.4169 13.3916 19.0771 13.3916 18.734V10.782C13.382 10.221 13.4843 9.66366 13.6923 9.14257C13.9004 8.62148 14.2102 8.14703 14.6035 7.74691C14.9969 7.34678 15.466 7.02899 15.9834 6.81205C16.5009 6.59512 17.0564 6.4834 17.6175 6.4834C18.1786 6.4834 18.734 6.59512 19.2515 6.81205C19.769 7.02899 20.2381 7.34678 20.6314 7.74691C21.0248 8.14703 21.3345 8.62148 21.5426 9.14257C21.7507 9.66366 21.8529 10.221 21.8433 10.782V19.63C21.8417 21.1741 21.2276 22.6545 20.1357 23.7464C19.0438 24.8382 17.5634 25.4524 16.0193 25.454Z" fill="black"/>
</g>
</svg>
